# xmcd CD database file
#
# Track frame offsets:
#	150
#	23071
#	53299
#	72211
#	100196
#	132351
#	160426
#	188655
#	214435
#	236607
#	267208
#	297639
#	320009
#
# Disc length: 4713 seconds
#
# Revision: 14
# Processed by: cddbd v1.5.2PL0 Copyright (c) Steve Scherf et al.
# Submitted via: CDex 1.50
#
DISCID=c012670d
DTITLE=Various Artist - Progressions: 100 Years of Jazz Guitar [CD4]
DYEAR=2005
DGENRE=Jazz
TTITLE0=Carlos Santana with Santana - Europa (Earth's Cry Heaven's Smile)
TTITLE1=Phil Upchurch - Inner City Blues (Make Me Wanna Holler)
TTITLE2=Eric Gale - Thumper (edit)
TTITLE3=Larry Carlton with the Crusaders - Spiral
TTITLE4=Lee Ritenour - Captain Fingers
TTITLE5=Allan Holdsworth with the Tony Williams Lifetime - Mr. Spock
TTITLE6=Al Di Meola - Race with Devil on Spanish Highway
TTITLE7=Jeff Beck - Cause We've Ended as Lovers
TTITLE8=James "Blood" Ulmer - Church
TTITLE9=Bill Frisell - Ron Carter
TTITLE10=John Scofield - Hottentot
TTITLE11=Marc Ribot - Postizo
TTITLE12=Mike Stern with Miles Davis - Fat Time (edit)
EXTD=4CD: Columbia/Legacy C4K 86462 (2005-09-27), UPC 696998646223. <http://jazzguitarbox.com/> YEAR: 2005
EXTT0=From "Santana: Amigos"\nGENRE: Latin Rock\nYEAR: 1976
EXTT1=From "Darkness, Darkness"\nYEAR: 1972
EXTT2=From "Multiplication"\nGENRE: Jazz-Funk\nYEAR: 1978
EXTT3=From "Those Southern Knights"\nGENRE: Jazz-Funk\nYEAR: 1975
EXTT4=From "Captain Fingers"\nGENRE: Jazz-Pop\nYEAR: 1976
EXTT5=From "Believe It"\nGENRE: Jazz-Rock\nYEAR: 1975
EXTT6=From "Elegant Gypsy"\nGENRE: Jazz-Rock\nYEAR: 1976
EXTT7=From "Blow by Blow"\nGENRE: Jazz-Rock\nYEAR: 1975
EXTT8=From "Odyssey"\nYEAR: 1983
EXTT9=From "Blues Dream"\nYEAR: 2001
EXTT10=From "A Go Go"\nYEAR: 1998
EXTT11=From "The Prosthetic Cubans"\nYEAR: 1998
EXTT12=From "The Man with the Horn"\nYEAR: 1981
PLAYORDER=
